# xmcd
#
# Track frame offsets:
#	150
#	16330
#	30305
#	51820
#	62080
#	75155
#	89765
#
# Disc length: 1486 seconds
#
# Revision: 1
# Processed by: cddbd v1.5PL3 Copyright (c) Steve Scherf et al.
# Submitted via: EasyCDDAExtractor 4.6.9.1
#
DISCID=4805cc07
DTITLE=Evan Dando - Griffith Sunset EP
DYEAR=2001
DGENRE=Country
TTITLE0=Ba-De-Da
TTITLE1=Fraulein
TTITLE2=Sam Stone
TTITLE3=Nothin
TTITLE4=My Baby's Gone
TTITLE5=Tribute To Hank Williams
TTITLE6=Ba-De-Da (Alternate Version)
EXTD=YEAR: 2001 ID3G: 2
EXTT0=
EXTT1=
EXTT2=
EXTT3=
EXTT4=
EXTT5=
EXTT6=
PLAYORDER=
